<?xml version="1.0" encoding="UTF-8"?>
<svg xmlns="http://www.w3.org/2000/svg" xmlns:xlink="http://www.w3.org/1999/xlink" viewBox="0 0 48 48" width="48px" height="48px">
<g id="surface21225497">
<path style=" stroke:none;fill-rule:nonzero;fill:rgb(95.686275%,45.882353%,12.941177%);fill-opacity:1;" d="M 9 26.5 C 9 16.835938 16.835938 9 26.5 9 C 35.742188 9 43.292969 16.171875 43.9375 25.25 C 43.964844 24.835938 44 24.421875 44 24 C 44 12.953125 35.046875 4 24 4 C 12.953125 4 4 12.953125 4 24 C 4 35.046875 12.953125 44 24 44 C 24.421875 44 24.835938 43.964844 25.25 43.9375 C 16.171875 43.292969 9 35.742188 9 26.5 Z M 9 26.5 "/>
<path style=" stroke:none;fill-rule:nonzero;fill:rgb(95.686275%,45.882353%,12.941177%);fill-opacity:1;" d="M 36.5 28 C 32.910156 28 30 25.089844 30 21.5 C 30 18.863281 31.574219 16.597656 33.828125 15.578125 C 31.941406 14.574219 29.789062 14 27.5 14 C 20.042969 14 14 20.042969 14 27.5 C 14 34.957031 20.042969 41 27.5 41 C 34.957031 41 41 34.957031 41 27.5 C 41 27.074219 40.976562 26.65625 40.9375 26.242188 C 39.773438 27.328125 38.21875 28 36.5 28 Z M 36.5 28 "/>
</g>
</svg>
